<svg id="Groupe_221" data-name="Groupe 221" xmlns="http://www.w3.org/2000/svg" xmlns:xlink="http://www.w3.org/1999/xlink" width="305.05" height="227.766" viewBox="0 0 305.05 227.766">
  <defs>
    <clipPath id="clip-path">
      <rect id="Rectangle_121" data-name="Rectangle 121" width="305.05" height="227.766" fill="none"/>
    </clipPath>
    <clipPath id="clip-path-3">
      <path id="Tracé_516" data-name="Tracé 516" d="M204.51,185.084a94.859,94.859,0,1,0,94.859-94.859,94.859,94.859,0,0,0-94.859,94.859" transform="translate(-204.51 -90.225)" fill="none"/>
    </clipPath>
    <clipPath id="clip-path-4">
      <rect id="Rectangle_114" data-name="Rectangle 114" width="45.882" height="41.537" fill="none"/>
    </clipPath>
    <clipPath id="clip-path-5">
      <rect id="Rectangle_115" data-name="Rectangle 115" width="152.902" height="32.831" fill="none"/>
    </clipPath>
    <clipPath id="clip-path-6">
      <rect id="Rectangle_116" data-name="Rectangle 116" width="95.342" height="40.17" fill="none"/>
    </clipPath>
    <clipPath id="clip-path-8">
      <rect id="Rectangle_117" data-name="Rectangle 117" width="20.199" height="41.852" fill="none"/>
    </clipPath>
    <clipPath id="clip-path-9">
      <rect id="Rectangle_118" data-name="Rectangle 118" width="20.199" height="41.851" fill="none"/>
    </clipPath>
    <clipPath id="clip-path-10">
      <rect id="Rectangle_120" data-name="Rectangle 120" width="212.284" height="149.53" fill="none"/>
    </clipPath>
  </defs>
  <g id="Groupe_220" data-name="Groupe 220" clip-path="url(#clip-path)">
    <g id="Groupe_198" data-name="Groupe 198">
      <g id="Groupe_197" data-name="Groupe 197" clip-path="url(#clip-path)">
        <path id="Tracé_498" data-name="Tracé 498" d="M394.228,185.083a94.859,94.859,0,1,1-94.859-94.859,94.859,94.859,0,0,1,94.859,94.859" transform="translate(-149.418 -65.919)" fill="#25517c"/>
      </g>
    </g>
    <g id="Groupe_209" data-name="Groupe 209" transform="translate(55.092 24.305)">
      <g id="Groupe_208" data-name="Groupe 208" clip-path="url(#clip-path-3)">
        <path id="Tracé_499" data-name="Tracé 499" d="M32.142,557.451s0-30.906,32.9-21.376c5.225-69.92,110.76-45.569,98.7,42.016" transform="translate(-78.576 -386.275)" fill="#3bb7b9"/>
        <path id="Tracé_500" data-name="Tracé 500" d="M509.7,760.78s4.9-22.141,11.726-21.573-5.471,21.573-5.471,21.573,10.52-15.817,15.354-13.715-10.8,13.715-10.8,13.715" transform="translate(-427.488 -564.373)" fill="#3bb7b9"/>
        <g id="Groupe_201" data-name="Groupe 201" transform="translate(-23.156 161.924)" opacity="0.2" style="mix-blend-mode: multiply;isolation: isolate">
          <g id="Groupe_200" data-name="Groupe 200">
            <g id="Groupe_199" data-name="Groupe 199" clip-path="url(#clip-path-4)">
              <path id="Tracé_501" data-name="Tracé 501" d="M120,731.845s-8.183-31.794,14.339-39.252,38.948,19.136,24.869,40.254" transform="translate(-118.553 -691.311)" fill="#3b4636"/>
            </g>
          </g>
        </g>
        <path id="Tracé_502" data-name="Tracé 502" d="M37.97,593.453S23.458,603.417,7.2,585.644l2.422-5.018-5.174,1.756A68.582,68.582,0,0,1,0,575.977c27.355-5.755,37.97,17.476,37.97,17.476" transform="translate(-55.092 -444.452)" fill="#3bb7b9"/>
        <path id="Tracé_503" data-name="Tracé 503" d="M199.428,618.833a5.136,5.136,0,1,1-5.136-5.136,5.136,5.136,0,0,1,5.136,5.136" transform="translate(-193.292 -472.681)" fill="#15256e"/>
        <path id="Tracé_504" data-name="Tracé 504" d="M262.464,577.628a2.568,2.568,0,1,1-2.568-2.568,2.568,2.568,0,0,1,2.568,2.568" transform="translate(-243.1 -444.452)" fill="#15256e"/>
        <path id="Tracé_505" data-name="Tracé 505" d="M358.824,560.128a3.3,3.3,0,1,1-3.3-3.3,3.3,3.3,0,0,1,3.3,3.3" transform="translate(-312.436 -431.133)" fill="#15256e"/>
        <path id="Tracé_506" data-name="Tracé 506" d="M400.106,631.395a3.321,3.321,0,1,1-3.321-3.321,3.321,3.321,0,0,1,3.321,3.321" transform="translate(-342.563 -483.185)" fill="#15256e"/>
        <path id="Tracé_507" data-name="Tracé 507" d="M304.054,668.464a4.3,4.3,0,1,1-4.3-4.3,4.3,4.3,0,0,1,4.3,4.3" transform="translate(-270.959 -509.554)" fill="#15256e"/>
        <g id="Groupe_204" data-name="Groupe 204" transform="translate(45.568 158.985)" opacity="0.2" style="mix-blend-mode: multiply;isolation: isolate">
          <g id="Groupe_203" data-name="Groupe 203">
            <g id="Groupe_202" data-name="Groupe 202" clip-path="url(#clip-path-5)">
              <path id="Tracé_508" data-name="Tracé 508" d="M526.566,713.23V684.621s-15.19-3.146-17.621,14.3c-10.938-5.64-10.938,5.3-10.938,5.3s-16.407-29.956-49.221-17.713c-6.684-15.1-34.029.7-31.6,15.89-9.115-4.254-12.761,3.038-12.761,3.038s-16.559-9.331-30.763,7.791Z" transform="translate(-373.664 -680.4)" fill="#3b4636"/>
            </g>
          </g>
        </g>
        <path id="Tracé_509" data-name="Tracé 509" d="M618.606,584.125s-11.682-29.954,20.38-33.01C618.643,511.3,662.71,501.48,670.007,523.6c15.119-27.942,50.637-14.747,42.264,15.808,22.913-11.682,43.224,11.821,43.224,11.821" transform="translate(-505.538 -395.646)" fill="#3bb7b9"/>
        <g id="Groupe_207" data-name="Groupe 207" transform="translate(120.509 147.353)" opacity="0.2" style="mix-blend-mode: multiply;isolation: isolate">
          <g id="Groupe_206" data-name="Groupe 206">
            <g id="Groupe_205" data-name="Groupe 205" clip-path="url(#clip-path-6)">
              <path id="Tracé_510" data-name="Tracé 510" d="M651.857,677.389s9.287-23.453,29.364-25.231c5.733-14.955,12.748,0,12.748,0s31.724-36.633,53.229,4.832" transform="translate(-651.857 -637.219)" fill="#3b4636"/>
            </g>
          </g>
        </g>
        <path id="Tracé_511" data-name="Tracé 511" d="M420.564,733.479a1.223,1.223,0,1,1-1.223-1.223,1.223,1.223,0,0,1,1.223,1.223" transform="translate(-360.575 -559.302)" fill="#15256e"/>
        <path id="Tracé_512" data-name="Tracé 512" d="M723.514,587.862a1.663,1.663,0,1,1-1.663-1.663,1.663,1.663,0,0,1,1.663,1.663" transform="translate(-581.271 -452.591)" fill="#15256e"/>
        <path id="Tracé_513" data-name="Tracé 513" d="M766.3,572.356a1.282,1.282,0,1,1-1.282-1.282,1.282,1.282,0,0,1,1.282,1.282" transform="translate(-613.091 -441.54)" fill="#15256e"/>
        <path id="Tracé_514" data-name="Tracé 514" d="M754.049,646.278a1.787,1.787,0,1,1-1.787-1.787,1.787,1.787,0,0,1,1.787,1.787" transform="translate(-603.4 -495.179)" fill="#15256e"/>
        <path id="Tracé_515" data-name="Tracé 515" d="M853.364,591.272a1.132,1.132,0,1,1-1.132-1.132,1.132,1.132,0,0,1,1.132,1.132" transform="translate(-676.918 -455.47)" fill="#15256e"/>
      </g>
    </g>
    <g id="Groupe_217" data-name="Groupe 217">
      <g id="Groupe_216" data-name="Groupe 216" clip-path="url(#clip-path)">
        <path id="Tracé_517" data-name="Tracé 517" d="M160.286,361.341l4.181-5.525a48.517,48.517,0,0,0-11.438-10.461l-4,5.13,1.061-6.967a68.483,68.483,0,0,0-9.251-4.482,84.589,84.589,0,0,0-2.051,25.848L146.7,367.3l-7.516.9a45.65,45.65,0,0,0,4.836,14.947l6.458-2.044-4.528,5.253a40.207,40.207,0,0,0,25.466,16.752s8.058-22.932-3.913-42.873Z" transform="translate(-101.196 -247.704)" fill="#3bb7b9"/>
        <g id="Groupe_212" data-name="Groupe 212" transform="translate(47.682 107.678)" opacity="0.2" style="mix-blend-mode: multiply;isolation: isolate">
          <g id="Groupe_211" data-name="Groupe 211">
            <g id="Groupe_210" data-name="Groupe 210" clip-path="url(#clip-path-8)">
              <path id="Tracé_518" data-name="Tracé 518" d="M177,399.717l20.2,41.852s-5.813-23.4-20.2-41.852" transform="translate(-177.003 -399.717)" fill="#3b4636"/>
            </g>
          </g>
        </g>
        <path id="Tracé_519" data-name="Tracé 519" d="M741.9,376.36l4.18-5.525a48.514,48.514,0,0,0-11.438-10.461l-4,5.13,1.061-6.967a68.484,68.484,0,0,0-9.251-4.482A84.593,84.593,0,0,0,720.4,379.9l7.916,2.415-7.516.9a45.647,45.647,0,0,0,4.836,14.947l6.458-2.044-4.528,5.253a40.207,40.207,0,0,0,25.466,16.752s8.058-22.932-3.913-42.873Z" transform="translate(-526.133 -258.677)" fill="#3bb7b9"/>
        <g id="Groupe_215" data-name="Groupe 215" transform="translate(204.362 111.724)" opacity="0.2" style="mix-blend-mode: multiply;isolation: isolate">
          <g id="Groupe_214" data-name="Groupe 214">
            <g id="Groupe_213" data-name="Groupe 213" clip-path="url(#clip-path-9)">
              <path id="Tracé_520" data-name="Tracé 520" d="M758.62,414.736l20.2,41.852s-5.812-23.4-20.2-41.852" transform="translate(-758.62 -414.736)" fill="#3b4636"/>
            </g>
          </g>
        </g>
        <path id="Tracé_521" data-name="Tracé 521" d="M835.433,435.213s-15.327-27.482,28.487-49.275a55.157,55.157,0,0,1,.144,11.846l-4.622,1.647,4.228,1.425a44.65,44.65,0,0,1-2.39,8.8l-5.974-1.113,4.536,4.394c-8.113,16.583-24.41,22.276-24.41,22.276" transform="translate(-608.482 -281.972)" fill="#3bb7b9"/>
        <path id="Tracé_522" data-name="Tracé 522" d="M260.669,450.562s4.9-22.141,11.726-21.572-5.471,21.572-5.471,21.572,10.52-15.817,15.354-13.715-10.8,13.715-10.8,13.715" transform="translate(-190.448 -313.418)" fill="#3bb7b9"/>
      </g>
    </g>
    <g id="Groupe_219" data-name="Groupe 219" transform="translate(33.89 0)">
      <g id="Groupe_218" data-name="Groupe 218" clip-path="url(#clip-path-10)">
        <path id="Tracé_523" data-name="Tracé 523" d="M290.9,43.878c.087,1.923-.053,7.969,5.775,11.738a18.987,18.987,0,0,0,2.2,1,4.058,4.058,0,0,0,3.347.038l.925-.354c2.054-.93,3.833-2.336,5.866-3.385a15.056,15.056,0,0,1-6.3,5.01c-.079.036-.158.061-.237.091,7.065,1.8,11.341-.806,14.357-3.024,0,0,13.117,3.1,22.93-4.707a47.87,47.87,0,0,0,13.718-17.523s-4.205.6-7.31-5.206c-2.06-3.854-2.664-4.577-2.838-4.627-.041.077-.066.121-.066.121s-.023-.147.066-.121c.538-1.013,4.21-8.448-.069-15.8,0,0-7.607-.7-16.519,7.109s-13.017,1.5-15.72,4.2-2.8,14.119-3.5,16.022S290.8,41.676,290.9,43.879" transform="translate(-246.422 -5.198)" fill="#1573b3"/>
        <path id="Tracé_524" data-name="Tracé 524" d="M485.355,65.818c-.088-.025-.066.121-.066.121s.025-.045.066-.121" transform="translate(-388.447 -48.085)" fill="#1573b3"/>
        <path id="Tracé_525" data-name="Tracé 525" d="M125.811,244.181c.081-.2.708-1.622,1.723-1.517,0,0-1.665,1.974-1.634,2.5.4,2.962,2.083,5.718,5.026,6.391,7.009,1.6,16.621,12.916,21.428,13.818s6.809-6.709,11.115-11.115,33.043-13.017,36.848-14.319,5.407,1.3,22.43,2.8,32.142-11.916,37.949-18.324,4.611-13.592,3.3-18.724c-.4-1.573-16.221-27.336-18.224-29.439a6.4,6.4,0,0,0-4.467-2c4.86-.023,22.39-4.606,22.39-4.606s2.9-.2,7.81,4.506,20.327,10.714,20.327,10.714c-1.7-.1-2.1,1.5-4.406,6.208s4.806,7.71,4.806,7.71c-.6-.8,1-3.3,1-3.3-.7,2.2,2.1,9.011,7.31,11.215s10.914-11.415,6.108-14.819-10.114-11.815-11.315-12.917S278.72,162.535,267.3,160.031s-43.255,4.905-43.955,4.905-1.2-3.5-1.2-3.5c-4.706,4.906-17.423,7.109-17.423,7.109s6.508,1,5.407,3.4,4.406,11.115,4.406,11.115c8.211,2.3,16.522,28.237,16.522,28.237,4.006-1.2,10.214,1.3,10.214,1.3-14.218-.1-36.347,7.409-42.756,9.813s-26.234,17.423-35.246,22.53c-6.9,3.909-12.326,3.359-14.494,2.886l2.3,2.008-3.813-2.476c-3.226-1.572-8.2-10.633-15.538-10.728-4.12-.053-6.065,3.75-5.917,7.549" transform="translate(-125.804 -116.543)" fill="#1573b3"/>
        <path id="Tracé_526" data-name="Tracé 526" d="M894.386,264.576a5.206,5.206,0,0,0-1.754-.623,10.563,10.563,0,0,1,1.754.623" transform="translate(-686.059 -192.847)" fill="#1573b3"/>
        <path id="Tracé_527" data-name="Tracé 527" d="M645.344,302.9s.881,9.773-.808,12.864c1.393-2.076,7.869-11.1,15.377-11.362,8.488-.3,30.356,7.136,37.476,4.582,10.007-3.59,9.734-8.911,10.335-12.858,0,0-1.148-.085-3.5-2.037a8.172,8.172,0,0,1-2.513-5.359c-2.1,6.742-.916,14.781-10.63,14.846-11.189.075-24.857-5.632-34.019-4.881-5.278.432-11.715,4.205-11.715,4.205" transform="translate(-504.797 -210.951)" fill="#1573b3"/>
        <path id="Tracé_528" data-name="Tracé 528" d="M643.781,389.089c-.181.27-.281.428-.281.428a2.679,2.679,0,0,0,.281-.428" transform="translate(-504.04 -284.274)" fill="#1573b3"/>
        <path id="Tracé_529" data-name="Tracé 529" d="M859.338,264.86a15.4,15.4,0,0,0-1.236,2.952,8.174,8.174,0,0,0,2.513,5.359c2.353,1.952,3.5,2.036,3.5,2.036a6.876,6.876,0,0,1,1.016-3.012c.064-.16.119-.293.157-.38-1.558-3.293.325-.374.325-.374a.953.953,0,0,1,0,.18.061.061,0,0,0,0,.016q.089-.086.186-.169a1.193,1.193,0,0,0-.039.586,3.728,3.728,0,0,0,.319.476c1.83,2.33,5.22.342,5.953-.986.576-1.045,3.157-7.168-2.514-9.785a10.6,10.6,0,0,0-1.754-.623c-3.155-.541-7.094,1.35-8.424,3.723" transform="translate(-660.831 -190.721)" fill="#1573b3"/>
        <path id="Tracé_530" data-name="Tracé 530" d="M679.628,440.67c-4.606,5.207-.4,12.416,6.008,17.423l5.511,4.305a6.554,6.554,0,0,1,.774-2.077,3.7,3.7,0,0,1,2.461-1.765c-.009-3.068,1.853-5.669,5.062-5.96-.35.1-.708.175-1.044.306a5.279,5.279,0,0,0-3.212,5.951l.052.354-.4.1c-1.92.319-2.536,2.513-2.473,4.2a.671.671,0,0,1-.043.294c1.155,2.715,5.878,11.991,13.141,2.308,0,0,7.009-.4,4.205-9.212,0,0,6.208-7.41-6.008-9.813-7.484-1.472-19.427-11.615-24.033-6.408" transform="translate(-529.014 -320.882)" fill="#1573b3"/>
        <path id="Tracé_531" data-name="Tracé 531" d="M616.693,407.485c-6.308-7.435-16.372-9.425-16.372-9.425-5.031,8-14.944,13.255-14.944,13.255,7.585,1.491,11.19-5.031,13.142-3.854s10.288,7.835,10.288,7.835a10.864,10.864,0,0,1,1.434-5.332c1.584-2.929,6.452-2.478,6.452-2.478" transform="translate(-461.574 -290.828)" fill="#1573b3"/>
        <path id="Tracé_532" data-name="Tracé 532" d="M406.951,254.663c-6.809-7.109-9.412,4.006-10.914,5.507s3,5.707,8.211,2.9,4.522-6.512,2.7-8.411" transform="translate(-323.025 -184.34)" fill="#1573b3"/>
        <path id="Tracé_533" data-name="Tracé 533" d="M361.138,212.443a17.874,17.874,0,0,0,3.2,8.486c-4.017-1.424-9.812,3.1-10.714,2.528s-7.61.677-10.213,2.764,1.5,3.219-.5,5.121,1.2,3.545,1.2,3.545c-11.015,1.644-11.415-5.845-7.31-10.852s24.332-11.591,24.332-11.591" transform="translate(-278.213 -155.214)" fill="#1573b3"/>
        <path id="Tracé_534" data-name="Tracé 534" d="M370.524,80.478c.9-2.771,2.688-4.673,4-4.248s1.647,3.014.749,5.785-2.688,4.673-4,4.248-1.646-3.015-.749-5.786" transform="translate(-304.232 -55.651)" fill="#fff"/>
        <path id="Tracé_535" data-name="Tracé 535" d="M423.043,101.765s-.5.6-3.5,0-6.609,2.492-7.309,3.775-4.105,3.771-4.105,3.771c1.9.135,5.707-3.572,6.809-4.515s3.7-.81,5.807-.539,3.3-1.82,2.3-2.491" transform="translate(-332.071 -74.294)" fill="#fff"/>
        <path id="Tracé_536" data-name="Tracé 536" d="M296.835,130.767c-3-.239-6.158,2.389-6.5,3.047s.411,3.949.411,3.949a15.468,15.468,0,0,0,1.578-1.251c.5-.5,4.706.9,6.408-.4s-.242-5.213-1.9-5.345" transform="translate(-245.952 -95.529)" fill="#fff"/>
        <path id="Tracé_537" data-name="Tracé 537" d="M385.144,270.759c4.731,9.612-4.882,8.184-10.063,7.959s-6.684-4.206-6.37-5.182,2.765-2.553,2.465-3.338-2.328-1.918-1.352-3.044-.3-3.154,0-4.356,4.956-1.652,5.782-1.952,2.215.375,2.141.976a7.119,7.119,0,0,1-1.782,3.718c-1.2,1.127-1.128,2.112.581,4.093,1.652,1.916,8.6,1.127,8.6,1.127" transform="translate(-303.246 -190.523)" fill="#1573b3"/>
        <path id="Tracé_538" data-name="Tracé 538" d="M418.905,2.253c-2.509.067-11.565,6.759-12.717,7.61s-1.552-.35-1.552-.35c-.049-1.1,3.8-5.908,6.809-8.186S419.957.4,419.957.4l-1.051,1.851" transform="translate(-329.522 -0.002)" fill="#1573b3"/>
        <path id="Tracé_539" data-name="Tracé 539" d="M447.191,207.093c-.677,2.183,3.784,8.041,3.784,8.041,6.511,2.769,12.22,18.169,14.427,24.847a4.626,4.626,0,0,0,3.387,3.062,44.1,44.1,0,0,1,7.24,2.876s1.2-2.4,1.8-11.415-13.518-24.732-20.327-28.057-10.313.647-10.313.647" transform="translate(-360.563 -149.863)" fill="#fff"/>
        <path id="Tracé_540" data-name="Tracé 540" d="M812.3,351.831c0-.664.941-1.2,2.1-1.2s2.1.538,2.1,1.2-.94,1.2-2.1,1.2-2.1-.538-2.1-1.2" transform="translate(-627.367 -256.174)" fill="#fff"/>
        <path id="Tracé_541" data-name="Tracé 541" d="M764.583,340.746c.3-.591,1.387-.637,2.42-.105s1.623,1.44,1.319,2.031-1.387.637-2.42.105-1.622-1.441-1.319-2.031" transform="translate(-592.446 -248.606)" fill="#fff"/>
        <path id="Tracé_542" data-name="Tracé 542" d="M662.5,419.488c.426-.509,1.493-.317,2.383.429s1.266,1.763.84,2.272-1.493.316-2.383-.43-1.265-1.763-.84-2.271" transform="translate(-517.797 -306.276)" fill="#fff"/>
        <path id="Tracé_543" data-name="Tracé 543" d="M634.048,411.414c-.066-.66.817-1.29,1.972-1.406s2.147.324,2.213.984-.817,1.29-1.972,1.406-2.146-.324-2.213-.984" transform="translate(-497.131 -299.543)" fill="#fff"/>
        <path id="Tracé_544" data-name="Tracé 544" d="M543.321,406.557c.664-.928,2.627-.661,4.383.594s2.643,3.027,1.979,3.956-2.627.661-4.384-.594-2.643-3.028-1.979-3.956" transform="translate(-430.686 -296.632)" fill="#fff"/>
        <path id="Tracé_545" data-name="Tracé 545" d="M710.788,334.451c.136-.828,1.36-1.316,2.734-1.091s2.378,1.079,2.242,1.908-1.36,1.317-2.734,1.091-2.378-1.08-2.242-1.908" transform="translate(-553.192 -243.517)" fill="#fff"/>
        <path id="Tracé_546" data-name="Tracé 546" d="M663.093,345.68c-.42-.727.217-1.88,1.424-2.576s2.524-.672,2.944.055-.218,1.88-1.424,2.576-2.524.672-2.943-.055" transform="translate(-518.26 -250.307)" fill="#fff"/>
        <path id="Tracé_547" data-name="Tracé 547" d="M839.038,319.5a7.718,7.718,0,0,1-3.933,5.548c2.538,3.2,5.083.724,5.46-.573a5.061,5.061,0,0,0-1.527-4.975" transform="translate(-644.029 -233.424)" fill="#fff"/>
        <path id="Tracé_548" data-name="Tracé 548" d="M692.315,458.148c1.051-1.053,1.152-.551,3.3-.9s6.759,3.654,8.311,5.957-1.7,3.905-5.507,3.154-7.441-6.878-6.108-8.211" transform="translate(-539.499 -334.055)" fill="#fff"/>
        <path id="Tracé_549" data-name="Tracé 549" d="M600.12,367.637c-1.752-1.7-2.8-.6-4.706-.25s-1.051,2.7,0,2.7,2,1.551,4.205,1.851,1.19-3.635.5-4.306" transform="translate(-468.081 -267.924)" fill="#fff"/>
        <path id="Tracé_550" data-name="Tracé 550" d="M512.028,372.131c-1.752-1.7-2.8-.6-4.706-.25s-1.051,2.7,0,2.7,2,1.551,4.205,1.851,1.19-3.635.5-4.305" transform="translate(-403.72 -271.208)" fill="#fff"/>
        <path id="Tracé_551" data-name="Tracé 551" d="M571.721,266.882c-1.037-3.5-3.278-3.675-6.079-5.48s-3.458,1.282-2.058,2.456,1.486,3.645,4.192,6.377,4.354-1.974,3.945-3.352" transform="translate(-445.133 -190.579)" fill="#fff"/>
        <path id="Tracé_552" data-name="Tracé 552" d="M519.439,199.162c-1.7-.106-2.139.849-3.38,1.79s.008,1.724.749,1.3,1.839-.067,3.472-.819-.17-2.228-.84-2.269" transform="translate(-410.545 -145.504)" fill="#fff"/>
        <path id="Tracé_553" data-name="Tracé 553" d="M436.913,389.149c-4.205-1.728-5.407,1.026-3.96,1.426s3.659,3,5.762,2.5.42-3.017-1.8-3.93" transform="translate(-349.783 -283.905)" fill="#fff"/>
        <path id="Tracé_554" data-name="Tracé 554" d="M385.451,421.646c-3.5-1.8-4.313,1.4-3.512,2.5s5.821-1.313,3.512-2.5" transform="translate(-312.733 -307.666)" fill="#fff"/>
        <path id="Tracé_555" data-name="Tracé 555" d="M629.3,171.508c-3.5-1.8-4.313,1.4-3.512,2.5s5.821-1.313,3.512-2.5" transform="translate(-490.889 -124.912)" fill="#fff"/>
        <path id="Tracé_556" data-name="Tracé 556" d="M710.788,211.842c2.6-4.224-1.1-5.654-2.515-4.77s.8,7.559,2.515,4.77" transform="translate(-551.034 -151.107)" fill="#fff"/>
        <path id="Tracé_557" data-name="Tracé 557" d="M665.421,191.871c-2.544-5.629-6.6-2.81-6.676-.735s8.354,4.452,6.676.735" transform="translate(-515.178 -137.767)" fill="#fff"/>
        <path id="Tracé_558" data-name="Tracé 558" d="M367.551,453.6c-2.133-1.291-2.63,1-2.142,1.79s3.55-.939,2.142-1.79" transform="translate(-300.737 -331.124)" fill="#fff"/>
        <path id="Tracé_559" data-name="Tracé 559" d="M349.338,275.794c-2.133-1.291-2.63,1-2.142,1.79s3.55-.939,2.142-1.79" transform="translate(-287.43 -201.216)" fill="#fff"/>
        <path id="Tracé_560" data-name="Tracé 560" d="M382.177,138.226c-2.133-1.291-2.63,1-2.142,1.79s3.55-.939,2.142-1.79" transform="translate(-311.423 -100.707)" fill="#fff"/>
        <path id="Tracé_561" data-name="Tracé 561" d="M438.443,117.27c-2.1-1.268-2.586.987-2.106,1.762s3.49-.925,2.106-1.762" transform="translate(-352.559 -85.402)" fill="#fff"/>
        <path id="Tracé_562" data-name="Tracé 562" d="M422.841,134.609c-1.066-.645-1.315.5-1.071.9s1.775-.471,1.071-.9" transform="translate(-341.977 -98.206)" fill="#fff"/>
        <path id="Tracé_563" data-name="Tracé 563" d="M403.97,137.822c-.533-.322-.658.251-.536.448s.888-.236.536-.448" transform="translate(-328.613 -100.624)" fill="#fff"/>
        <path id="Tracé_564" data-name="Tracé 564" d="M441.791,138.355c-3.336-2.791-4.114,2.17-3.35,3.877s5.552-2.034,3.35-3.877" transform="translate(-354.024 -100.474)" fill="#fff"/>
        <path id="Tracé_565" data-name="Tracé 565" d="M429.179,426.114a7.057,7.057,0,0,0-4.843,0s1.2,2.482,3.271,2.683,3.508-1.913,1.572-2.683" transform="translate(-343.915 -311.011)" fill="#fff"/>
        <path id="Tracé_566" data-name="Tracé 566" d="M596.157,321.425a7.248,7.248,0,0,0-2.845.1.611.611,0,0,0-.361.943,4.24,4.24,0,0,0,2.848,1.976,1.526,1.526,0,0,0,.358-3.023" transform="translate(-467.029 -234.769)" fill="#fff"/>
        <path id="Tracé_567" data-name="Tracé 567" d="M547.619,225.051a7.247,7.247,0,0,0-2.845.1.611.611,0,0,0-.361.943,4.24,4.24,0,0,0,2.848,1.976,1.526,1.526,0,0,0,.358-3.023" transform="translate(-431.566 -164.356)" fill="#fff"/>
        <path id="Tracé_568" data-name="Tracé 568" d="M476.437,120.017a17.427,17.427,0,0,0-2.067,3.075c-.257.485-.115.882.27.763a6.639,6.639,0,0,0,3.259-2.243c1.506-1.93.111-3.448-1.462-1.594" transform="translate(-380.376 -87.072)" fill="#fff"/>
        <path id="Tracé_569" data-name="Tracé 569" d="M560.781,180.239a16.743,16.743,0,0,0-4.339.1c-.638.1-.923.59-.55.943a7.045,7.045,0,0,0,4.342,1.976c2.865.18,3.381-2.7.546-3.023" transform="translate(-439.91 -131.616)" fill="#fff"/>
        <path id="Tracé_570" data-name="Tracé 570" d="M330.483,465.109c0-.615.684-1.114,1.527-1.114s1.527.5,1.527,1.114-.683,1.114-1.527,1.114-1.527-.5-1.527-1.114" transform="translate(-275.345 -339.001)" fill="#fff"/>
        <path id="Tracé_571" data-name="Tracé 571" d="M496.393,424.254c0-.615.684-1.114,1.527-1.114s1.527.5,1.527,1.114-.683,1.114-1.527,1.114-1.527-.5-1.527-1.114" transform="translate(-396.561 -309.152)" fill="#fff"/>
        <path id="Tracé_572" data-name="Tracé 572" d="M389.284,241.644c-.265-.555.137-1.3.9-1.663a1.371,1.371,0,0,1,1.858.348c.265.555-.137,1.3-.9,1.663a1.37,1.37,0,0,1-1.858-.348" transform="translate(-318.246 -175.19)" fill="#fff"/>
        <path id="Tracé_573" data-name="Tracé 573" d="M491.056,195.717c-.265-.555.137-1.3.9-1.663a1.371,1.371,0,0,1,1.858.348c.265.555-.137,1.3-.9,1.663a1.37,1.37,0,0,1-1.858-.348" transform="translate(-392.602 -141.635)" fill="#fff"/>
        <path id="Tracé_574" data-name="Tracé 574" d="M330.192,149.566h0a.227.227,0,1,1,.1-.444l16.773,3.913-16.871-3.468" transform="translate(-275.002 -108.946)" fill="#fff"/>
        <path id="Tracé_575" data-name="Tracé 575" d="M330.875,156.4a.227.227,0,1,1,.213-.4l10.256,5.676Z" transform="translate(-275.543 -113.952)" fill="#fff"/>
      </g>
    </g>
  </g>
</svg>
